<svg version="1.1" xmlns:x="&amp;ns_extend;" xmlns:i="&amp;ns_ai;" xmlns:graph="&amp;ns_graphs;" xmlns="http://www.w3.org/2000/svg" xmlns:xlink="http://www.w3.org/1999/xlink" x="0px" y="0px" viewBox="22.139999389648438 26.788999557495117 386.449951171875 395.32879638671875" style="enable-background:new 0 0 315 274.68;" xml:space="preserve" id="final_svg">
      <style type="text/css">.st0{fill:url(#SVGID_1_);}</style>
    <metadata>
              <sfw>
                      <slices></slices>
            <slicesourcebounds bottomleftorigin="true" height="274.68" width="315" x="-140.11" y="-20.36"></slicesourcebounds>
                  </sfw>
          </metadata>
    <g id="color_index_g" transform="translate(59.13209748402406, 149.6253) scale(0.992)" opacity="1">
              <linearGradient id="SVGID_1_" gradientUnits="userSpaceOnUse" x1="111.5048" y1="27.3318" x2="287.8058" y2="196.5808">
                      <stop offset="0.2714" style="stop-color:#3e4ca7"></stop>
            <stop offset="0.9989" style="stop-color:#ff6391"></stop>
                  </linearGradient>
        <path class="st0" d="M168.57,117.82c-0.15-0.2-0.22-0.29-0.22-0.29c-1.3-1.94-2.41-3.97-3.35-6.06c-0.49-2.13-0.87-4.28-1.04-6.46		c-0.34-4.67,0.34-9.53,2.77-13.53c1.06-1.73,2.47-3.27,4.12-4.46c-8.27-1.74-20.16,6.85-22.92,10.73		c3.01-5.18,7.86-9.08,13.25-11.72c5.49-2.68,12.89-2.51,18.6-1.34c0.05,0.01,0.1,0.02,0.13,0.02c0.24,0.04,0.48,0.09,0.71,0.16		c0.09,0.02,0.17,0.04,0.26,0.06c0.01,0,0.02,0.01,0.04,0.02h0.01c3.63,1.05,6.73,4.06,7.19,7.79c1.07-6.69-0.35-13.74-3.93-19.48		c-3.58-5.75-9.28-10.14-15.75-12.13c-5.13-1.58-10.63-1.68-15.78-3.24c-5.14-1.56-10.25-5.22-11.07-10.53		c-0.78-5.04,0.01-6.77,1.73-9.69c-4.43,2.69-6.01,5.71-7.01,10.68c-1.13,5.61,0.48,11.9,4.78,15.67c-5.08,4.46-9.17,10-12.07,16.09		c-2.9,6.1-4.63,12.75-5.01,19.49v0.04c-0.11,1.97-0.11,3.96,0.02,5.94c-0.01,3.44-0.06,7.11-0.06,10.95		C101.85,112.05,18.74,89.48,2.11,0c0,0,0,0.01-0.01,0.05c0,0,0,0,0,0.01C2.09,0.1,2.07,0.17,2.06,0.27		C1.2,4.86-9.72,66.88,29.08,96.23c37.5,28.37,61.52,31.75,64.67,32.09c-4.63-0.27-54.41-3.89-91.14-35.45		c3.49,14.58,9.12,29.1,17.91,42.1c0,0,40.19,20.31,83.44,13.92c-3.71,0.71-34.64,6.33-63.48,7.9c8.45,6.85,18.49,12.67,30.39,17.06		c5.21,1.93,10.09,3.85,14.71,5.78c0.01,0,0.02,0,0.02,0c1.28-0.18,30.62-4.25,40.66-10.95c-2.16,1.52-15.25,10.75-26.75,17.19		c23.72,11.41,38.05,22.85,46.19,33.66c4.27-10.55-5.41-32.37-5.91-33.48c32.93,55.52,5.68,87.4,4.6,88.64		c1.22-0.88,34.4-25.49,44.77-74.66c0.02-0.09,0.05-0.18,0.06-0.27C197.06,159.51,171.14,121.47,168.57,117.82z M315,32.23V32.2		c-0.84-16.93-3.1-28.26-3.1-28.26c-27.16,92.9-117.99,112.23-131.57,114.62c19.07,39.07,12.53,69.59,9.75,78.8		c8.09-4.77,17.8-9.55,29.39-14.24c-9.06-5.88-17.52-12.15-19.29-13.48c6.03,4.22,19.26,7.67,28.93,9.74c0.01,0,0.01,0,0.01,0		c3.08-1.15,6.29-2.28,9.61-3.4c12.07-4.11,22.3-9.7,30.94-16.39c-28.61-2.44-58.64-8.74-61.76-9.41		c36.7,6.42,71.68-6.61,81.29-10.63c9.22-12.52,15.34-26.67,19.32-40.99c-39.12,30.39-90.13,31.36-90.13,31.36s24.76-1,65.82-30.44		C307.71,82.64,313.95,53.82,315,32.23z"></path>
          </g>
    <g fill="#1e2b7a" id="text_group" transform="translate(20, 11.509000000000015)" opacity="1.0">
              <path d="M2.21 62.79L16.95 62.79L17.02 62.65C15.75 61.52 14.61 58.57 14.81 54.35L15.55 40.47C15.68 37.59 15.68 33.97 15.14 28.95L15.41 28.95C16.69 33.64 18.09 36.79 20.24 40.27L28.21 53.00C30.69 56.96 31.36 59.64 31.56 61.05L32.10 61.05C32.23 59.64 32.83 56.96 35.25 52.94L42.69 40.34C44.90 36.59 46.44 33.44 47.85 28.95L48.11 28.95C47.51 33.84 47.44 37.32 47.71 40.47L48.78 54.35C49.12 58.57 47.85 61.52 46.57 62.65L46.64 62.79L61.98 62.79L62.05 62.65C59.64 60.24 58.37 56.15 58.10 52.94L56.02 26.94C55.75 23.25 56.89 18.03 59.91 16.35L59.84 16.22L44.36 16.22C45.16 17.22 45.03 19.16 43.36 22.11L36.79 33.71C34.58 37.59 32.83 40.68 31.83 44.76L31.56 44.76C30.96 40.94 29.48 37.32 27.41 33.71L20.77 22.31C19.03 19.30 18.90 17.22 19.70 16.22L4.36 16.22L4.29 16.35C7.30 18.16 8.18 23.25 7.91 26.94L6.16 52.94C5.83 57.63 4.29 60.31 2.14 62.65ZM91.80 62.79C95.76 62.79 97.50 62.92 99.98 63.32L101.86 49.99L101.72 49.92C98.84 54.01 94.15 56.22 88.25 56.22L80.95 56.22L80.95 41.14L87.11 41.14C90.87 41.14 93.28 42.35 94.42 45.37L94.55 45.37L96.49 34.11C93.48 34.51 91.60 34.58 86.04 34.58L80.95 34.58L80.95 22.78L89.79 22.78C95.02 22.78 98.71 24.46 100.31 27.74L100.45 27.68L99.31 15.68C97.83 16.02 94.89 16.22 92.21 16.22L68.15 16.22L68.15 16.35C69.89 17.49 71.77 20.71 71.77 26.27L71.77 52.74C71.77 58.23 69.82 61.52 68.15 62.65L68.15 62.79ZM105.88 28.01C107.42 25.33 110.57 23.05 114.59 23.05L119.68 23.05L119.68 52.20C119.68 57.90 117.54 61.52 115.59 62.65L115.59 62.79L132.95 62.79L132.95 62.65C130.74 61.52 128.86 57.96 128.86 52.20L128.86 23.05L133.89 23.05C137.91 23.05 141.06 25.33 142.60 28.01L142.73 27.94L141.59 15.68C138.51 16.08 135.70 16.22 132.41 16.22L116.06 16.22C112.78 16.22 109.96 16.08 106.88 15.68L105.74 27.94ZM140.12 62.79L154.19 62.79L154.19 62.65C153.25 61.78 152.58 59.04 154.32 54.41L154.93 52.80L172.22 52.80L172.82 54.41C174.49 59.04 173.96 61.78 172.82 62.65L172.82 62.79L187.96 62.79L187.96 62.65C186.09 61.11 183.21 56.96 181.40 51.80L171.55 24.19C170.14 20.24 171.48 17.49 172.75 16.35L172.75 16.22L154.99 16.22L154.99 16.35C156.27 17.42 157.54 20.24 156.20 24.19L146.62 51.80C144.81 56.96 141.93 61.05 140.12 62.65ZM157.14 46.24L159.62 39.13C161.16 34.78 162.77 30.29 163.37 25.13L163.64 25.13C164.31 30.29 165.98 34.78 167.53 39.13L170.00 46.24ZM220.46 37.86C216.17 37.86 213.76 37.73 212.29 37.46L211.22 47.71L211.35 47.78C213.90 45.10 217.85 44.36 221.33 44.29L221.33 55.22C219.19 56.22 216.78 56.69 213.96 56.69C205.05 56.69 199.62 50.12 199.62 39.47C199.62 28.95 205.05 22.31 214.43 22.31C220.19 22.31 224.82 24.26 228.24 28.08L228.37 28.01L227.36 17.09C223.95 16.02 219.52 15.28 214.63 15.28C199.76 15.28 189.71 24.59 189.71 40.14C189.71 54.08 199.29 63.79 213.29 63.79C218.65 63.79 225.42 61.85 229.91 58.97L229.91 47.91C229.91 41.88 230.58 39.00 232.12 37.99L232.12 37.86ZM237.75 62.79L253.90 62.79L253.90 62.65C252.43 61.52 250.55 58.30 250.55 53.00L250.55 22.85L255.24 22.78C260.33 22.78 264.22 25.20 264.22 30.69C264.22 36.65 261.00 39.00 255.24 39.00L252.02 39.00L262.41 56.76C263.89 59.24 264.96 61.58 265.83 64.20L279.57 61.72L279.57 61.58C276.35 60.51 273.40 57.83 270.85 53.74L264.62 43.62C270.25 41.81 273.74 37.46 273.74 30.36C273.74 21.64 267.50 16.22 256.78 16.22L237.75 16.22L237.75 16.35C239.49 17.49 241.37 20.71 241.37 26.00L241.37 52.74C241.37 58.23 239.49 61.52 237.75 62.65ZM279.90 62.79L293.97 62.79L293.97 62.65C293.03 61.78 292.36 59.04 294.11 54.41L294.71 52.80L312.00 52.80L312.60 54.41C314.28 59.04 313.74 61.78 312.60 62.65L312.60 62.79L327.75 62.79L327.75 62.65C325.87 61.11 322.99 56.96 321.18 51.80L311.33 24.19C309.92 20.24 311.26 17.49 312.53 16.35L312.53 16.22L294.78 16.22L294.78 16.35C296.05 17.42 297.32 20.24 295.98 24.19L286.40 51.80C284.59 56.96 281.71 61.05 279.90 62.65ZM296.92 46.24L299.40 39.13C300.94 34.78 302.55 30.29 303.15 25.13L303.42 25.13C304.09 30.29 305.77 34.78 307.31 39.13L309.79 46.24ZM328.75 62.79L343.49 62.79L343.56 62.65C342.29 61.52 341.15 58.57 341.35 54.35L342.09 40.47C342.22 37.59 342.22 33.97 341.68 28.95L341.95 28.95C343.23 33.64 344.63 36.79 346.78 40.27L354.75 53.00C357.23 56.96 357.90 59.64 358.10 61.05L358.64 61.05C358.77 59.64 359.37 56.96 361.79 52.94L369.23 40.34C371.44 36.59 372.98 33.44 374.38 28.95L374.65 28.95C374.05 33.84 373.98 37.32 374.25 40.47L375.32 54.35C375.66 58.57 374.38 61.52 373.11 62.65L373.18 62.79L388.52 62.79L388.59 62.65C386.18 60.24 384.91 56.15 384.64 52.94L382.56 26.94C382.29 23.25 383.43 18.03 386.45 16.35L386.38 16.22L370.90 16.22C371.70 17.22 371.57 19.16 369.90 22.11L363.33 33.71C361.12 37.59 359.37 40.68 358.37 44.76L358.10 44.76C357.50 40.94 356.02 37.32 353.95 33.71L347.31 22.31C345.57 19.30 345.44 17.22 346.24 16.22L330.90 16.22L330.83 16.35C333.84 18.16 334.71 23.25 334.45 26.94L332.70 52.94C332.37 57.63 330.83 60.31 328.68 62.65Z"></path>
          </g>
    <g fill="#6277dd" id="tagline_group" transform="translate(23.5926462104797, 102.22530000000003)" opacity="1.0">
              <path d="M2.49 28.11L2.49 7.71L9.78 7.71Q12.81 7.71 15.18 9.03Q17.55 10.35 18.87 12.68Q20.19 15 20.19 17.94L20.19 17.94Q20.19 20.88 18.90 23.19Q17.61 25.50 15.25 26.80Q12.90 28.11 9.81 28.11L9.81 28.11L2.49 28.11ZM6.03 25.05L9.66 25.05Q11.76 25.05 13.33 24.15Q14.91 23.25 15.75 21.63Q16.59 20.01 16.59 17.94L16.59 17.94Q16.59 15.87 15.73 14.23Q14.88 12.60 13.30 11.68Q11.73 10.77 9.63 10.77L9.63 10.77L6.03 10.77L6.03 25.05ZM24.06 28.11L24.06 7.71L27.60 7.71L27.60 28.11L24.06 28.11ZM38.85 28.50Q36.75 28.50 34.81 27.86Q32.88 27.21 31.38 26.01L31.38 26.01L33.03 23.25Q34.20 24.24 35.67 24.79Q37.14 25.35 38.73 25.35L38.73 25.35Q40.35 25.35 41.45 24.63Q42.54 23.91 42.54 22.62L42.54 22.62Q42.54 21.33 41.41 20.58Q40.29 19.83 38.13 19.14L38.13 19.14Q32.04 17.16 32.04 12.93L32.04 12.93Q32.04 11.19 32.95 9.91Q33.87 8.64 35.43 7.98Q36.99 7.32 38.85 7.32L38.85 7.32Q40.65 7.32 42.24 7.80Q43.83 8.28 45.48 9.39L45.48 9.39L43.95 12.03Q42.66 11.19 41.48 10.82Q40.29 10.44 39.03 10.44L39.03 10.44Q37.59 10.44 36.62 11.04Q35.64 11.64 35.64 12.75L35.64 12.75Q35.64 14.01 36.70 14.71Q37.77 15.42 39.81 16.11L39.81 16.11Q42.78 17.07 44.45 18.54Q46.11 20.01 46.11 22.44L46.11 22.44Q46.11 24.30 45.15 25.66Q44.19 27.03 42.54 27.77Q40.89 28.50 38.85 28.50L38.85 28.50ZM59.13 28.50Q56.04 28.50 53.66 27.09Q51.27 25.68 49.95 23.25Q48.63 20.82 48.63 17.88L48.63 17.88Q48.63 14.85 49.99 12.45Q51.36 10.05 53.76 8.68Q56.16 7.32 59.22 7.32L59.22 7.32Q61.53 7.32 63.36 8.04Q65.19 8.76 66.90 10.32L66.90 10.32L65.07 12.72Q62.70 10.53 59.31 10.53L59.31 10.53Q57.24 10.53 55.65 11.48Q54.06 12.42 53.16 14.08Q52.26 15.75 52.26 17.88L52.26 17.88Q52.26 19.95 53.13 21.64Q54 23.34 55.58 24.31Q57.15 25.29 59.19 25.29L59.19 25.29Q61.08 25.29 62.58 24.54Q64.08 23.79 65.13 22.41L65.13 22.41L67.35 24.69Q65.85 26.55 63.78 27.52Q61.71 28.50 59.13 28.50L59.13 28.50ZM79.23 28.50Q76.17 28.50 73.75 27.11Q71.34 25.71 69.97 23.28Q68.61 20.85 68.61 17.88L68.61 17.88Q68.61 14.85 69.96 12.45Q71.31 10.05 73.72 8.68Q76.14 7.32 79.23 7.32L79.23 7.32Q82.32 7.32 84.73 8.68Q87.15 10.05 88.50 12.45Q89.85 14.85 89.85 17.88L89.85 17.88Q89.85 20.85 88.50 23.28Q87.15 25.71 84.73 27.11Q82.32 28.50 79.23 28.50L79.23 28.50ZM79.23 25.29Q81.33 25.29 82.92 24.30Q84.51 23.31 85.38 21.63Q86.25 19.95 86.25 17.88L86.25 17.88Q86.25 15.78 85.38 14.10Q84.51 12.42 82.92 11.48Q81.33 10.53 79.23 10.53L79.23 10.53Q77.13 10.53 75.55 11.48Q73.98 12.42 73.11 14.10Q72.24 15.78 72.24 17.88L72.24 17.88Q72.24 19.95 73.11 21.63Q73.98 23.31 75.57 24.30Q77.16 25.29 79.23 25.29L79.23 25.29ZM107.01 7.71L110.91 7.71L110.91 7.77L101.25 28.23L100.17 28.23L90.51 7.77L90.51 7.71L94.38 7.71L99.57 19.05Q100.35 20.76 100.71 21.84L100.71 21.84Q101.34 20.13 101.88 18.99L101.88 18.99L107.01 7.71ZM117.15 24.99L126.72 24.99L126.72 28.11L113.61 28.11L113.61 7.71L126.45 7.71L126.45 10.83L117.15 10.83L117.15 16.23L125.28 16.23L125.28 19.26L117.15 19.26L117.15 24.99ZM140.67 19.98L145.89 28.02L145.89 28.11L141.87 28.11L137.07 20.37L133.98 20.37L133.98 28.11L130.44 28.11L130.44 7.71L138.45 7.71Q140.43 7.71 142.02 8.54Q143.61 9.36 144.49 10.82Q145.38 12.27 145.38 14.07L145.38 14.07Q145.38 16.20 144.12 17.77Q142.86 19.35 140.67 19.98L140.67 19.98ZM133.98 17.43L138.09 17.43Q139.83 17.43 140.82 16.55Q141.81 15.66 141.81 14.13L141.81 14.13Q141.81 12.66 140.79 11.71Q139.77 10.77 138.15 10.77L138.15 10.77L133.98 10.77L133.98 17.43ZM168.30 7.71L172.32 7.71L172.32 7.80L164.88 19.26L164.88 28.11L161.34 28.11L161.34 19.26L153.90 7.80L153.90 7.71L157.92 7.71L161.58 13.47Q162.33 14.67 163.14 16.29L163.14 16.29Q163.65 15.12 164.67 13.47L164.67 13.47L168.30 7.71ZM183.24 28.50Q180.18 28.50 177.76 27.11Q175.35 25.71 173.98 23.28Q172.62 20.85 172.62 17.88L172.62 17.88Q172.62 14.85 173.97 12.45Q175.32 10.05 177.73 8.68Q180.15 7.32 183.24 7.32L183.24 7.32Q186.33 7.32 188.74 8.68Q191.16 10.05 192.51 12.45Q193.86 14.85 193.86 17.88L193.86 17.88Q193.86 20.85 192.51 23.28Q191.16 25.71 188.74 27.11Q186.33 28.50 183.24 28.50L183.24 28.50ZM183.24 25.29Q185.34 25.29 186.93 24.30Q188.52 23.31 189.39 21.63Q190.26 19.95 190.26 17.88L190.26 17.88Q190.26 15.78 189.39 14.10Q188.52 12.42 186.93 11.48Q185.34 10.53 183.24 10.53L183.24 10.53Q181.14 10.53 179.56 11.48Q177.99 12.42 177.12 14.10Q176.25 15.78 176.25 17.88L176.25 17.88Q176.25 19.95 177.12 21.63Q177.99 23.31 179.58 24.30Q181.17 25.29 183.24 25.29L183.24 25.29ZM205.62 28.50Q203.22 28.50 201.37 27.60Q199.53 26.70 198.48 24.99Q197.43 23.28 197.43 20.88L197.43 20.88L197.43 7.71L200.97 7.71L200.97 20.64Q200.97 22.92 202.21 24.11Q203.46 25.29 205.62 25.29L205.62 25.29Q207.75 25.29 208.99 24.11Q210.24 22.92 210.24 20.64L210.24 20.64L210.24 7.71L213.78 7.71L213.78 20.88Q213.78 23.28 212.73 24.99Q211.68 26.70 209.83 27.60Q207.99 28.50 205.62 28.50L205.62 28.50ZM228.69 19.98L233.91 28.02L233.91 28.11L229.89 28.11L225.09 20.37L222.00 20.37L222.00 28.11L218.46 28.11L218.46 7.71L226.47 7.71Q228.45 7.71 230.04 8.54Q231.63 9.36 232.51 10.82Q233.40 12.27 233.40 14.07L233.40 14.07Q233.40 16.20 232.14 17.77Q230.88 19.35 228.69 19.98L228.69 19.98ZM222.00 17.43L226.11 17.43Q227.85 17.43 228.84 16.55Q229.83 15.66 229.83 14.13L229.83 14.13Q229.83 12.66 228.81 11.71Q227.79 10.77 226.17 10.77L226.17 10.77L222.00 10.77L222.00 17.43ZM251.85 28.50Q249.45 28.50 247.60 27.60Q245.76 26.70 244.71 24.99Q243.66 23.28 243.66 20.88L243.66 20.88L243.66 7.71L247.20 7.71L247.20 20.64Q247.20 22.92 248.44 24.11Q249.69 25.29 251.85 25.29L251.85 25.29Q253.98 25.29 255.22 24.11Q256.47 22.92 256.47 20.64L256.47 20.64L256.47 7.71L260.01 7.71L260.01 20.88Q260.01 23.28 258.96 24.99Q257.91 26.70 256.06 27.60Q254.22 28.50 251.85 28.50L251.85 28.50ZM278.67 7.71L282.18 7.71L282.18 28.23L280.80 28.23L269.79 16.20Q268.59 14.91 268.08 14.34L268.08 14.34Q268.20 15.84 268.20 16.56L268.20 16.56L268.20 28.11L264.69 28.11L264.69 7.59L266.04 7.59L276.72 19.32Q278.10 20.76 278.76 21.51L278.76 21.51Q278.67 20.01 278.67 18.78L278.67 18.78L278.67 7.71ZM287.16 28.11L287.16 7.71L290.70 7.71L290.70 28.11L287.16 28.11ZM309.90 7.71L313.80 7.71L313.80 7.77L304.14 28.23L303.06 28.23L293.40 7.77L293.40 7.71L297.27 7.71L302.46 19.05Q303.24 20.76 303.60 21.84L303.60 21.84Q304.23 20.13 304.77 18.99L304.77 18.99L309.90 7.71ZM320.04 24.99L329.61 24.99L329.61 28.11L316.50 28.11L316.50 7.71L329.34 7.71L329.34 10.83L320.04 10.83L320.04 16.23L328.17 16.23L328.17 19.26L320.04 19.26L320.04 24.99ZM343.56 19.98L348.78 28.02L348.78 28.11L344.76 28.11L339.96 20.37L336.87 20.37L336.87 28.11L333.33 28.11L333.33 7.71L341.34 7.71Q343.32 7.71 344.91 8.54Q346.50 9.36 347.38 10.82Q348.27 12.27 348.27 14.07L348.27 14.07Q348.27 16.20 347.01 17.77Q345.75 19.35 343.56 19.98L343.56 19.98ZM336.87 17.43L340.98 17.43Q342.72 17.43 343.71 16.55Q344.70 15.66 344.70 14.13L344.70 14.13Q344.70 12.66 343.68 11.71Q342.66 10.77 341.04 10.77L341.04 10.77L336.87 10.77L336.87 17.43ZM358.32 28.50Q356.22 28.50 354.28 27.86Q352.35 27.21 350.85 26.01L350.85 26.01L352.50 23.25Q353.67 24.24 355.14 24.79Q356.61 25.35 358.20 25.35L358.20 25.35Q359.82 25.35 360.91 24.63Q362.01 23.91 362.01 22.62L362.01 22.62Q362.01 21.33 360.88 20.58Q359.76 19.83 357.60 19.14L357.60 19.14Q351.51 17.16 351.51 12.93L351.51 12.93Q351.51 11.19 352.42 9.91Q353.34 8.64 354.90 7.98Q356.46 7.32 358.32 7.32L358.32 7.32Q360.12 7.32 361.71 7.80Q363.30 8.28 364.95 9.39L364.95 9.39L363.42 12.03Q362.13 11.19 360.94 10.82Q359.76 10.44 358.50 10.44L358.50 10.44Q357.06 10.44 356.08 11.04Q355.11 11.64 355.11 12.75L355.11 12.75Q355.11 14.01 356.17 14.71Q357.24 15.42 359.28 16.11L359.28 16.11Q362.25 17.07 363.91 18.54Q365.58 20.01 365.58 22.44L365.58 22.44Q365.58 24.30 364.62 25.66Q363.66 27.03 362.01 27.77Q360.36 28.50 358.32 28.50L358.32 28.50ZM372.75 24.99L382.32 24.99L382.32 28.11L369.21 28.11L369.21 7.71L382.05 7.71L382.05 10.83L372.75 10.83L372.75 16.23L380.88 16.23L380.88 19.26L372.75 19.26L372.75 24.99Z"></path>
          </g>
  </svg>